<?xml version="1.0" encoding="UTF-8"?>
<svg id="Layer_2" data-name="Layer 2" xmlns="http://www.w3.org/2000/svg" viewBox="0 0 280.68 25.34">
  <defs>
    <style>
      .cls-1 {
        fill: #fff;
      }
    </style>
  </defs>
  <g id="Layer_1-2" data-name="Layer 1">
    <g>
      <path class="cls-1" d="M1.98,3.06c-.47-.97-1.08-1.94-1.98-2.34h10.01c-1.55.79-1.33,1.55-.79,2.66l5.36,11.2,4.57-10.22c.76-1.66.36-2.92-1.12-3.64h7.27c-1.22.79-1.84,1.94-2.59,3.49l-8.39,17.93c-.61,1.3-.97,2.3-1.22,3.2L1.98,3.06Z"/>
      <path class="cls-1" d="M21.65,24.62c1.15-.79,1.76-1.91,2.52-3.49l7.99-16.52c-.94-1.91-1.58-3.28-3.46-3.89h8.75c.11.94.58,1.87,1.01,2.77l8.96,18.79c.47.97.94,1.91,1.73,2.34h-9.61c1.51-.68,1.4-1.69.94-2.66l-1.08-2.23h-11.09l-.61,1.26c-.9,1.84-.4,2.92,1.08,3.64h-7.13ZM29.68,16.92h8.39l-4.18-8.82-4.21,8.82Z"/>
      <path class="cls-1" d="M51.26,24.62c1.12-.61,1.76-1.8,1.76-3.67V4.39c0-1.87-.65-3.06-1.76-3.67h7.99c.32,1.12.86,2.02,1.87,3.38l9.72,13.1V4.39c0-1.87-.61-3.06-1.73-3.67h6.66c-1.12.61-1.73,1.8-1.73,3.67v16.56c0,1.44.29,2.81,1.01,3.67h-7.2c-.07-.9-.47-1.8-1.22-2.81l-10.44-13.86v13c0,1.87.65,3.06,1.76,3.67h-6.7Z"/>
      <path class="cls-1" d="M87.71,24.62c1.12-.61,1.66-1.8,1.66-3.67V4.39c0-1.87-.54-3.06-1.66-3.67h10.8c9.65,0,13.86,5.08,13.86,11.95s-4.21,11.95-13.86,11.95h-10.8ZM95.67,21.56l2.84.04c5.26,0,6.98-2.84,6.98-8.93,0-5.72-2.09-8.93-6.98-8.93l-2.84.04v17.78Z"/>
      <path class="cls-1" d="M136.23,24.98c-1.01-.36-2.02-.36-3.02-.36h-17.21c1.12-.61,1.66-1.8,1.66-3.67V4.39c0-1.87-.54-3.06-1.66-3.67h16.2c1.4,0,2.16-.04,2.92-.72v8.5c-1.26-3.6-2.88-4.75-6.26-4.75h-4.9v7.38h4.28c1.4,0,2.81-.11,3.67-2.63v7.92c-.86-2.2-2.27-2.3-3.67-2.3h-4.28v7.49h6.01c3.38,0,5-1.33,6.26-5.22v8.6Z"/>
      <path class="cls-1" d="M139.95,24.62c1.12-.61,1.66-1.8,1.66-3.67V4.39c0-1.87-.54-3.06-1.66-3.67h11.23c6.62,0,10.8,1.76,10.8,6.73,0,4.68-3.78,6.41-8.32,6.7,3.67.11,4.68.79,5.76,2.74l2.7,4.61c.9,1.51,1.48,2.23,2.88,3.13h-9.58c.72-.58.76-1.22.14-2.3l-3.13-5.36c-.83-1.44-1.51-1.84-2.84-1.84h-1.69v5.83c0,1.87.54,3.06,1.66,3.67h-9.61ZM147.91,12.24h3.28c2.77,0,4.25-1.15,4.25-4.25s-1.48-4.25-4.25-4.25h-3.28v8.5Z"/>
      <path class="cls-1" d="M174.55,3.06c-.43-1.01-1.08-1.94-1.98-2.34h9.72c-1.15.72-1.19,1.69-.61,3.1l3.92,9.86,3.56-8.93c-1.15-2.56-1.84-3.71-2.48-4.03h9.18c-1.08.65-1.22,1.66-.58,3.17l3.96,9.86,3.6-9.4c.68-1.76.32-2.92-1.15-3.64h7.09c-1.22.79-1.94,1.87-2.59,3.46l-7.31,18.14c-.5,1.26-.76,2.12-.97,2.99l-7.16-16.85-5.51,13.75c-.5,1.3-.79,2.23-.97,3.1l-9.72-22.25Z"/>
      <path class="cls-1" d="M231.07,24.98c-1.01-.36-2.02-.36-3.02-.36h-17.21c1.12-.61,1.66-1.8,1.66-3.67V4.39c0-1.87-.54-3.06-1.66-3.67h16.2c1.4,0,2.16-.04,2.92-.72v8.5c-1.26-3.6-2.88-4.75-6.26-4.75h-4.9v7.38h4.28c1.4,0,2.81-.11,3.67-2.63v7.92c-.86-2.2-2.27-2.3-3.67-2.3h-4.28v7.49h6.01c3.38,0,5-1.33,6.26-5.22v8.6Z"/>
      <path class="cls-1" d="M234.79,24.62c1.12-.61,1.66-1.8,1.66-3.67V4.39c0-1.87-.54-3.06-1.66-3.67h11.23c6.62,0,10.8,1.76,10.8,6.73,0,4.68-3.78,6.41-8.32,6.7,3.67.11,4.68.79,5.76,2.74l2.7,4.61c.9,1.51,1.48,2.23,2.88,3.13h-9.58c.72-.58.76-1.22.14-2.3l-3.13-5.36c-.83-1.44-1.51-1.84-2.84-1.84h-1.69v5.83c0,1.87.54,3.06,1.66,3.67h-9.61ZM242.75,12.24h3.28c2.77,0,4.25-1.15,4.25-4.25s-1.48-4.25-4.25-4.25h-3.28v8.5Z"/>
      <path class="cls-1" d="M261.56,24.62c1.12-.61,1.66-1.8,1.66-3.67V4.39c0-1.87-.54-3.06-1.66-3.67h16.2c1.4,0,2.16-.04,2.92-.72v8.5c-1.26-3.53-2.84-4.75-6.26-4.75h-4.9v7.38h4.28c1.4,0,2.81-.11,3.67-2.63v7.92c-.86-2.2-2.27-2.3-3.67-2.3h-4.28v6.3c0,2.16,1.04,3.6,3.24,4.21h-11.2Z"/>
    </g>
  </g>
</svg>