<?xml version="1.0" encoding="UTF-8"?>
<svg id="Layer_2" data-name="Layer 2" xmlns="http://www.w3.org/2000/svg" viewBox="0 0 152.29 30.46">
  <defs>
    <style>
      .cls-1 {
        fill: #fff;
      }
    </style>
  </defs>
  <g id="Layer_1-2" data-name="Layer 1">
    <g>
      <path class="cls-1" d="M0,30.46c2.52-1.4,2.99-3.78,2.99-9.9V4.03c0-1.87-.54-3.06-1.66-3.67h9.61c-1.12.61-1.66,1.8-1.66,3.67v16.52c0,7.31-4.14,9.29-9.29,9.9Z"/>
      <path class="cls-1" d="M27.29,24.62c-7.96,0-12.85-5.4-12.85-12.31S19.33,0,27.29,0s12.85,5.44,12.85,12.31-4.82,12.31-12.85,12.31ZM21.28,12.31c0,6.44,1.91,9.29,6.01,9.29s5.98-2.84,5.98-9.29-1.84-9.29-5.98-9.29-6.01,2.88-6.01,9.29Z"/>
      <path class="cls-1" d="M40.65,24.26c1.15-.79,1.76-1.91,2.52-3.49l7.99-16.52c-.94-1.91-1.58-3.28-3.46-3.89h8.75c.11.94.58,1.87,1.01,2.77l8.96,18.79c.47.97.94,1.91,1.73,2.34h-9.61c1.51-.68,1.4-1.69.94-2.66l-1.08-2.23h-11.09l-.61,1.26c-.9,1.84-.4,2.92,1.08,3.64h-7.13ZM48.67,16.56h8.39l-4.18-8.82-4.21,8.82Z"/>
      <path class="cls-1" d="M70.25,24.26c1.12-.61,1.76-1.8,1.76-3.67V4.03c0-1.87-.65-3.06-1.76-3.67h7.99c.32,1.12.86,2.02,1.87,3.38l9.72,13.1V4.03c0-1.87-.61-3.06-1.73-3.67h6.66c-1.12.61-1.73,1.8-1.73,3.67v16.56c0,1.44.29,2.81,1.01,3.67h-7.2c-.07-.9-.47-1.8-1.22-2.81l-10.44-13.86v13c0,1.87.65,3.06,1.76,3.67h-6.7Z"/>
      <path class="cls-1" d="M98.08,24.26c1.12-.61,1.76-1.8,1.76-3.67V4.03c0-1.87-.65-3.06-1.76-3.67h7.99c.32,1.12.86,2.02,1.87,3.38l9.72,13.1V4.03c0-1.87-.61-3.06-1.73-3.67h6.66c-1.12.61-1.73,1.8-1.73,3.67v16.56c0,1.44.29,2.81,1.01,3.67h-7.2c-.07-.9-.47-1.8-1.22-2.81l-10.44-13.86v13c0,1.87.65,3.06,1.76,3.67h-6.7Z"/>
      <path class="cls-1" d="M124.79,24.26c1.15-.79,1.76-1.91,2.52-3.49l7.99-16.52c-.94-1.91-1.59-3.28-3.46-3.89h8.75c.11.94.58,1.87,1.01,2.77l8.96,18.79c.47.97.94,1.91,1.73,2.34h-9.61c1.51-.68,1.4-1.69.94-2.66l-1.08-2.23h-11.09l-.61,1.26c-.9,1.84-.39,2.92,1.08,3.64h-7.13ZM132.81,16.56h8.39l-4.18-8.82-4.21,8.82Z"/>
    </g>
  </g>
</svg>